<svg xmlns="http://www.w3.org/2000/svg" viewBox="0 0 158 44" width="158" height="44" role="img" aria-label="@omufrozen"><style>
  .chip{fill:#f4fafe;stroke:#bcdcef}
  .hole{fill:#f4fafe} .mono{fill:#2b4257} .nm{fill:#2b4257}
  @media (prefers-color-scheme: dark){
    .chip{fill:#0f1b26;stroke:#2b4257}
    .hole{fill:#0f1b26} .mono{fill:#cfe6f5} .nm{fill:#cfe6f5}
  }
</style><rect class="chip" x=".5" y=".5" width="157" height="43" rx="8" stroke-width="1"/><g fill="#5865f2"><rect x="17" y="13" width="30" height="3"/><rect x="14" y="16" width="36" height="3"/><rect x="11" y="19" width="42" height="3"/><rect x="11" y="22" width="42" height="3"/><rect x="11" y="25" width="42" height="3"/><rect x="11" y="28" width="42" height="3"/><rect x="11" y="31" width="42" height="3"/><rect x="11" y="34" width="42" height="3"/><rect x="14" y="37" width="36" height="3"/><rect x="14" y="40" width="6" height="3"/><rect x="44" y="40" width="6" height="3"/><rect x="17" y="43" width="6" height="3"/><rect x="41" y="43" width="6" height="3"/></g><g class="hole"><rect x="20" y="22" width="6" height="3"/><rect x="38" y="22" width="6" height="3"/><rect x="20" y="25" width="6" height="3"/><rect x="38" y="25" width="6" height="3"/><rect x="20" y="28" width="6" height="3"/><rect x="38" y="28" width="6" height="3"/></g><g transform="translate(52.00,27.40) scale(0.01500,-0.01500)" class="nm"><path transform="translate(0.0,0)" d="M150 79V124H105V148H80V400H105V443H150V468H413V443H438V400H483V356H538V235H493V191H467V167H377V185H356V167H210V185H188V326H210V345H376V326H396V217H428V268H473V323H438V367H393V411H160V367H144V161H189V118H369V79ZM249 217H336V293H249Z"/><path transform="translate(673.0,0)" d="M149 -11V74H61V381H149V467H453V381H542V74H453V-11ZM188 125H414V331H188Z"/><path transform="translate(1276.0,0)" d="M61 -11V467H365V381H414V467H631V381H718V-11H592V331H453V-11H326V331H188V-11Z"/><path transform="translate(2055.0,0)" d="M149 -11V74H61V467H188V125H414V467H542V74H453V-11Z"/><path transform="translate(2658.0,0)" d="M61 -11V552H149V638H453V552H542V416H414V501H188V381H365V246H188V-11Z"/><path transform="translate(3261.0,0)" d="M61 -11V381H149V467H453V381H542V246H414V331H188V-11Z"/><path transform="translate(3864.0,0)" d="M149 -11V74H61V381H149V467H453V381H542V74H453V-11ZM188 125H414V331H188Z"/><path transform="translate(4467.0,0)" d="M61 -11V125H149V211H237V297H326V331H61V467H542V331H453V246H365V160H276V125H542V-11Z"/><path transform="translate(5070.0,0)" d="M149 -11V74H61V381H149V467H453V381H542V246H414V331H188V297H365V160H188V125H414V212H542V75H453V-11Z"/><path transform="translate(5673.0,0)" d="M61 -11V467H453V381H542V-11H414V331H188V-11Z"/></g></svg>