<svg xmlns="http://www.w3.org/2000/svg" viewBox="0 0 812 148" width="812" height="148" role="img" aria-label="contributions">
<style>
  .lbl{fill:#5d7f95}
  .l0{fill:#e8f4fb}
  .l1{fill:#b8dcf0}
  .l2{fill:#7cc0e8}
  .l3{fill:#3d9fdb}
  .l4{fill:#1479c9}
  @media (prefers-color-scheme: dark){
    .lbl{fill:#8badc4}
    .l0{fill:#14202c}
    .l1{fill:#1d4460}
    .l2{fill:#2a6b94}
    .l3{fill:#3a95c7}
    .l4{fill:#58b6f8}
  }
  .sweep{animation:sw 7.0s linear infinite}
  @keyframes sw{from{transform:translateX(-284px)}to{transform:translateX(812px)}}
  @media (prefers-reduced-motion:reduce){.sweep{animation:none;opacity:0}}
</style>
<g transform="translate(10.00,17.00) scale(0.00900,-0.00900)" class="lbl"><path transform="translate(0.0,0)" d="M60 -12V450H151V540H241V631H343V540H433V450H525V-12H423V169H161V-12ZM161 270H423V440H333V530H251V440H161Z"/><path transform="translate(586.0,0)" d="M151 -12V78H60V450H161V88H423V450H525V78H433V-12Z"/><path transform="translate(1172.0,0)" d="M151 -193V-103H60V-3H161V-93H424V78H151V169H60V359H151V450H434V359H525V-103H434V-193ZM161 179H424V350H161Z"/></g>
<g transform="translate(40.00,17.00) scale(0.00900,-0.00900)" class="lbl"><path transform="translate(0.0,0)" d="M151 -12V78H60V179H161V88H423V260H151V350H60V540H151V631H433V540H525V440H423V530H161V359H433V270H525V78H433V-12Z"/><path transform="translate(586.0,0)" d="M151 -12V78H60V359H151V450H433V359H525V260H423V350H161V270H343V169H161V88H423V180H525V79H433V-12Z"/><path transform="translate(1172.0,0)" d="M60 -188V359H151V450H433V359H525V78H433V-12H161V-188ZM161 88H423V350H161Z"/></g>
<g transform="translate(100.00,17.00) scale(0.00900,-0.00900)" class="lbl"><path transform="translate(0.0,0)" d="M151 -12V78H60V540H151V631H433V540H525V78H433V-12ZM161 88H423V530H161Z"/><path transform="translate(586.0,0)" d="M151 -12V78H60V359H151V450H433V359H525V260H423V350H161V88H423V179H525V78H433V-12Z"/><path transform="translate(1172.0,0)" d="M241 -12V78H151V350H60V450H151V631H251V450H525V350H251V88H515V179H616V78H525V-12Z"/></g>
<g transform="translate(160.00,17.00) scale(0.00900,-0.00900)" class="lbl"><path transform="translate(0.0,0)" d="M60 -12V631H161V540H251V450H343V179H423V631H525V-12H423V78H333V169H241V440H161V-12Z"/><path transform="translate(586.0,0)" d="M151 -12V78H60V359H151V450H433V359H525V78H433V-12ZM161 88H423V350H161Z"/><path transform="translate(1172.0,0)" d="M232 -12V78H141V260H50V450H151V270H241V88H323V270H413V450H515V260H423V78H333V-12Z"/></g>
<g transform="translate(235.00,17.00) scale(0.00900,-0.00900)" class="lbl"><path transform="translate(0.0,0)" d="M60 -12V631H343V540H433V450H525V169H433V78H343V-12ZM161 88H333V179H423V440H333V530H161Z"/><path transform="translate(586.0,0)" d="M151 -12V78H60V359H151V450H433V359H525V260H423V350H161V270H343V169H161V88H423V180H525V79H433V-12Z"/><path transform="translate(1172.0,0)" d="M151 -12V78H60V359H151V450H433V359H525V260H423V350H161V88H423V179H525V78H433V-12Z"/></g>
<g transform="translate(295.00,17.00) scale(0.00900,-0.00900)" class="lbl"><path transform="translate(0.0,0)" d="M151 -12V78H60V270H161V88H423V530H151V631H433V540H525V78H433V-12Z"/><path transform="translate(586.0,0)" d="M151 -12V78H60V359H151V450H433V359H525V88H616V-12H515V78H433V-12ZM161 88H423V350H161Z"/><path transform="translate(1263.0,0)" d="M60 -12V450H433V359H525V-12H423V350H161V-12Z"/></g>
<g transform="translate(355.00,17.00) scale(0.00900,-0.00900)" class="lbl"><path transform="translate(0.0,0)" d="M60 -12V631H433V540H525V440H423V530H161V359H343V260H161V-12Z"/><path transform="translate(586.0,0)" d="M151 -12V78H60V359H151V450H433V359H525V260H423V350H161V270H343V169H161V88H423V180H525V79H433V-12Z"/><path transform="translate(1172.0,0)" d="M151 -12V78H60V631H161V450H433V359H525V78H433V-12ZM161 88H423V350H161Z"/></g>
<g transform="translate(415.00,17.00) scale(0.00900,-0.00900)" class="lbl"><path transform="translate(0.0,0)" d="M60 -12V540H151V631H251V540H343V359H423V540H515V631H616V540H706V-12H606V530H525V350H433V78H333V350H241V530H161V-12Z"/><path transform="translate(767.0,0)" d="M151 -12V78H60V359H151V450H433V359H525V88H616V-12H515V78H433V-12ZM161 88H423V350H161Z"/><path transform="translate(1444.0,0)" d="M60 -12V359H151V450H433V359H525V260H423V350H161V-12Z"/></g>
<g transform="translate(490.00,17.00) scale(0.00900,-0.00900)" class="lbl"><path transform="translate(0.0,0)" d="M60 -12V450H151V540H241V631H343V540H433V450H525V-12H423V169H161V-12ZM161 270H423V440H333V530H251V440H161Z"/><path transform="translate(586.0,0)" d="M60 -188V359H151V450H433V359H525V78H433V-12H161V-188ZM161 88H423V350H161Z"/><path transform="translate(1172.0,0)" d="M60 -12V359H151V450H433V359H525V260H423V350H161V-12Z"/></g>
<g transform="translate(550.00,17.00) scale(0.00900,-0.00900)" class="lbl"><path transform="translate(0.0,0)" d="M60 -12V540H151V631H251V540H343V359H423V540H515V631H616V540H706V-12H606V530H525V350H433V78H333V350H241V530H161V-12Z"/><path transform="translate(767.0,0)" d="M151 -12V78H60V359H151V450H433V359H525V88H616V-12H515V78H433V-12ZM161 88H423V350H161Z"/><path transform="translate(1444.0,0)" d="M151 -193V-103H60V-3H161V-93H424V78H151V169H60V450H161V179H424V450H525V-103H434V-193Z"/></g>
<g transform="translate(625.00,17.00) scale(0.00900,-0.00900)" class="lbl"><path transform="translate(0.0,0)" d="M151 -12V78H60V270H161V88H423V530H151V631H433V540H525V78H433V-12Z"/><path transform="translate(586.0,0)" d="M151 -12V78H60V450H161V88H423V450H525V78H433V-12Z"/><path transform="translate(1172.0,0)" d="M60 -12V450H433V359H525V-12H423V350H161V-12Z"/></g>
<g transform="translate(685.00,17.00) scale(0.00900,-0.00900)" class="lbl"><path transform="translate(0.0,0)" d="M151 -12V78H60V270H161V88H423V530H151V631H433V540H525V78H433V-12Z"/><path transform="translate(586.0,0)" d="M151 -12V78H60V450H161V88H423V450H525V78H433V-12Z"/><path transform="translate(1172.0,0)" d="M60 -12V631H161V-12Z"/></g>
<rect class="l0" x="10" y="26" width="12" height="12" rx="2"/>
<rect class="l0" x="10" y="41" width="12" height="12" rx="2"/>
<rect class="l0" x="10" y="56" width="12" height="12" rx="2"/>
<rect class="l0" x="10" y="71" width="12" height="12" rx="2"/>
<rect class="l0" x="10" y="86" width="12" height="12" rx="2"/>
<rect class="l0" x="10" y="101" width="12" height="12" rx="2"/>
<rect class="l0" x="10" y="116" width="12" height="12" rx="2"/>
<rect class="l0" x="25" y="26" width="12" height="12" rx="2"/>
<rect class="l0" x="25" y="41" width="12" height="12" rx="2"/>
<rect class="l0" x="25" y="56" width="12" height="12" rx="2"/>
<rect class="l0" x="25" y="71" width="12" height="12" rx="2"/>
<rect class="l0" x="25" y="86" width="12" height="12" rx="2"/>
<rect class="l0" x="25" y="101" width="12" height="12" rx="2"/>
<rect class="l0" x="25" y="116" width="12" height="12" rx="2"/>
<rect class="l0" x="40" y="26" width="12" height="12" rx="2"/>
<rect class="l0" x="40" y="41" width="12" height="12" rx="2"/>
<rect class="l0" x="40" y="56" width="12" height="12" rx="2"/>
<rect class="l0" x="40" y="71" width="12" height="12" rx="2"/>
<rect class="l0" x="40" y="86" width="12" height="12" rx="2"/>
<rect class="l0" x="40" y="101" width="12" height="12" rx="2"/>
<rect class="l0" x="40" y="116" width="12" height="12" rx="2"/>
<rect class="l0" x="55" y="26" width="12" height="12" rx="2"/>
<rect class="l0" x="55" y="41" width="12" height="12" rx="2"/>
<rect class="l0" x="55" y="56" width="12" height="12" rx="2"/>
<rect class="l0" x="55" y="71" width="12" height="12" rx="2"/>
<rect class="l0" x="55" y="86" width="12" height="12" rx="2"/>
<rect class="l0" x="55" y="101" width="12" height="12" rx="2"/>
<rect class="l0" x="55" y="116" width="12" height="12" rx="2"/>
<rect class="l0" x="70" y="26" width="12" height="12" rx="2"/>
<rect class="l0" x="70" y="41" width="12" height="12" rx="2"/>
<rect class="l0" x="70" y="56" width="12" height="12" rx="2"/>
<rect class="l0" x="70" y="71" width="12" height="12" rx="2"/>
<rect class="l1" x="70" y="86" width="12" height="12" rx="2"/>
<rect class="l0" x="70" y="101" width="12" height="12" rx="2"/>
<rect class="l0" x="70" y="116" width="12" height="12" rx="2"/>
<rect class="l0" x="85" y="26" width="12" height="12" rx="2"/>
<rect class="l0" x="85" y="41" width="12" height="12" rx="2"/>
<rect class="l2" x="85" y="56" width="12" height="12" rx="2"/>
<rect class="l0" x="85" y="71" width="12" height="12" rx="2"/>
<rect class="l0" x="85" y="86" width="12" height="12" rx="2"/>
<rect class="l0" x="85" y="101" width="12" height="12" rx="2"/>
<rect class="l0" x="85" y="116" width="12" height="12" rx="2"/>
<rect class="l0" x="100" y="26" width="12" height="12" rx="2"/>
<rect class="l0" x="100" y="41" width="12" height="12" rx="2"/>
<rect class="l0" x="100" y="56" width="12" height="12" rx="2"/>
<rect class="l0" x="100" y="71" width="12" height="12" rx="2"/>
<rect class="l0" x="100" y="86" width="12" height="12" rx="2"/>
<rect class="l0" x="100" y="101" width="12" height="12" rx="2"/>
<rect class="l0" x="100" y="116" width="12" height="12" rx="2"/>
<rect class="l0" x="115" y="26" width="12" height="12" rx="2"/>
<rect class="l1" x="115" y="41" width="12" height="12" rx="2"/>
<rect class="l1" x="115" y="56" width="12" height="12" rx="2"/>
<rect class="l0" x="115" y="71" width="12" height="12" rx="2"/>
<rect class="l0" x="115" y="86" width="12" height="12" rx="2"/>
<rect class="l0" x="115" y="101" width="12" height="12" rx="2"/>
<rect class="l0" x="115" y="116" width="12" height="12" rx="2"/>
<rect class="l0" x="130" y="26" width="12" height="12" rx="2"/>
<rect class="l1" x="130" y="41" width="12" height="12" rx="2"/>
<rect class="l1" x="130" y="56" width="12" height="12" rx="2"/>
<rect class="l0" x="130" y="71" width="12" height="12" rx="2"/>
<rect class="l0" x="130" y="86" width="12" height="12" rx="2"/>
<rect class="l0" x="130" y="101" width="12" height="12" rx="2"/>
<rect class="l0" x="130" y="116" width="12" height="12" rx="2"/>
<rect class="l0" x="145" y="26" width="12" height="12" rx="2"/>
<rect class="l0" x="145" y="41" width="12" height="12" rx="2"/>
<rect class="l1" x="145" y="56" width="12" height="12" rx="2"/>
<rect class="l1" x="145" y="71" width="12" height="12" rx="2"/>
<rect class="l0" x="145" y="86" width="12" height="12" rx="2"/>
<rect class="l1" x="145" y="101" width="12" height="12" rx="2"/>
<rect class="l0" x="145" y="116" width="12" height="12" rx="2"/>
<rect class="l0" x="160" y="26" width="12" height="12" rx="2"/>
<rect class="l0" x="160" y="41" width="12" height="12" rx="2"/>
<rect class="l0" x="160" y="56" width="12" height="12" rx="2"/>
<rect class="l0" x="160" y="71" width="12" height="12" rx="2"/>
<rect class="l0" x="160" y="86" width="12" height="12" rx="2"/>
<rect class="l0" x="160" y="101" width="12" height="12" rx="2"/>
<rect class="l0" x="160" y="116" width="12" height="12" rx="2"/>
<rect class="l0" x="175" y="26" width="12" height="12" rx="2"/>
<rect class="l0" x="175" y="41" width="12" height="12" rx="2"/>
<rect class="l0" x="175" y="56" width="12" height="12" rx="2"/>
<rect class="l0" x="175" y="71" width="12" height="12" rx="2"/>
<rect class="l0" x="175" y="86" width="12" height="12" rx="2"/>
<rect class="l2" x="175" y="101" width="12" height="12" rx="2"/>
<rect class="l0" x="175" y="116" width="12" height="12" rx="2"/>
<rect class="l0" x="190" y="26" width="12" height="12" rx="2"/>
<rect class="l0" x="190" y="41" width="12" height="12" rx="2"/>
<rect class="l0" x="190" y="56" width="12" height="12" rx="2"/>
<rect class="l1" x="190" y="71" width="12" height="12" rx="2"/>
<rect class="l0" x="190" y="86" width="12" height="12" rx="2"/>
<rect class="l1" x="190" y="101" width="12" height="12" rx="2"/>
<rect class="l0" x="190" y="116" width="12" height="12" rx="2"/>
<rect class="l0" x="205" y="26" width="12" height="12" rx="2"/>
<rect class="l2" x="205" y="41" width="12" height="12" rx="2"/>
<rect class="l1" x="205" y="56" width="12" height="12" rx="2"/>
<rect class="l1" x="205" y="71" width="12" height="12" rx="2"/>
<rect class="l1" x="205" y="86" width="12" height="12" rx="2"/>
<rect class="l2" x="205" y="101" width="12" height="12" rx="2"/>
<rect class="l1" x="205" y="116" width="12" height="12" rx="2"/>
<rect class="l0" x="220" y="26" width="12" height="12" rx="2"/>
<rect class="l1" x="220" y="41" width="12" height="12" rx="2"/>
<rect class="l0" x="220" y="56" width="12" height="12" rx="2"/>
<rect class="l0" x="220" y="71" width="12" height="12" rx="2"/>
<rect class="l0" x="220" y="86" width="12" height="12" rx="2"/>
<rect class="l0" x="220" y="101" width="12" height="12" rx="2"/>
<rect class="l0" x="220" y="116" width="12" height="12" rx="2"/>
<rect class="l0" x="235" y="26" width="12" height="12" rx="2"/>
<rect class="l0" x="235" y="41" width="12" height="12" rx="2"/>
<rect class="l0" x="235" y="56" width="12" height="12" rx="2"/>
<rect class="l1" x="235" y="71" width="12" height="12" rx="2"/>
<rect class="l0" x="235" y="86" width="12" height="12" rx="2"/>
<rect class="l0" x="235" y="101" width="12" height="12" rx="2"/>
<rect class="l0" x="235" y="116" width="12" height="12" rx="2"/>
<rect class="l0" x="250" y="26" width="12" height="12" rx="2"/>
<rect class="l0" x="250" y="41" width="12" height="12" rx="2"/>
<rect class="l0" x="250" y="56" width="12" height="12" rx="2"/>
<rect class="l0" x="250" y="71" width="12" height="12" rx="2"/>
<rect class="l0" x="250" y="86" width="12" height="12" rx="2"/>
<rect class="l0" x="250" y="101" width="12" height="12" rx="2"/>
<rect class="l0" x="250" y="116" width="12" height="12" rx="2"/>
<rect class="l0" x="265" y="26" width="12" height="12" rx="2"/>
<rect class="l0" x="265" y="41" width="12" height="12" rx="2"/>
<rect class="l0" x="265" y="56" width="12" height="12" rx="2"/>
<rect class="l0" x="265" y="71" width="12" height="12" rx="2"/>
<rect class="l0" x="265" y="86" width="12" height="12" rx="2"/>
<rect class="l0" x="265" y="101" width="12" height="12" rx="2"/>
<rect class="l0" x="265" y="116" width="12" height="12" rx="2"/>
<rect class="l0" x="280" y="26" width="12" height="12" rx="2"/>
<rect class="l0" x="280" y="41" width="12" height="12" rx="2"/>
<rect class="l0" x="280" y="56" width="12" height="12" rx="2"/>
<rect class="l2" x="280" y="71" width="12" height="12" rx="2"/>
<rect class="l2" x="280" y="86" width="12" height="12" rx="2"/>
<rect class="l1" x="280" y="101" width="12" height="12" rx="2"/>
<rect class="l0" x="280" y="116" width="12" height="12" rx="2"/>
<rect class="l0" x="295" y="26" width="12" height="12" rx="2"/>
<rect class="l0" x="295" y="41" width="12" height="12" rx="2"/>
<rect class="l0" x="295" y="56" width="12" height="12" rx="2"/>
<rect class="l0" x="295" y="71" width="12" height="12" rx="2"/>
<rect class="l1" x="295" y="86" width="12" height="12" rx="2"/>
<rect class="l0" x="295" y="101" width="12" height="12" rx="2"/>
<rect class="l0" x="295" y="116" width="12" height="12" rx="2"/>
<rect class="l0" x="310" y="26" width="12" height="12" rx="2"/>
<rect class="l0" x="310" y="41" width="12" height="12" rx="2"/>
<rect class="l0" x="310" y="56" width="12" height="12" rx="2"/>
<rect class="l1" x="310" y="71" width="12" height="12" rx="2"/>
<rect class="l0" x="310" y="86" width="12" height="12" rx="2"/>
<rect class="l0" x="310" y="101" width="12" height="12" rx="2"/>
<rect class="l1" x="310" y="116" width="12" height="12" rx="2"/>
<rect class="l1" x="325" y="26" width="12" height="12" rx="2"/>
<rect class="l0" x="325" y="41" width="12" height="12" rx="2"/>
<rect class="l0" x="325" y="56" width="12" height="12" rx="2"/>
<rect class="l0" x="325" y="71" width="12" height="12" rx="2"/>
<rect class="l0" x="325" y="86" width="12" height="12" rx="2"/>
<rect class="l1" x="325" y="101" width="12" height="12" rx="2"/>
<rect class="l1" x="325" y="116" width="12" height="12" rx="2"/>
<rect class="l2" x="340" y="26" width="12" height="12" rx="2"/>
<rect class="l1" x="340" y="41" width="12" height="12" rx="2"/>
<rect class="l0" x="340" y="56" width="12" height="12" rx="2"/>
<rect class="l0" x="340" y="71" width="12" height="12" rx="2"/>
<rect class="l3" x="340" y="86" width="12" height="12" rx="2"/>
<rect class="l1" x="340" y="101" width="12" height="12" rx="2"/>
<rect class="l0" x="340" y="116" width="12" height="12" rx="2"/>
<rect class="l2" x="355" y="26" width="12" height="12" rx="2"/>
<rect class="l0" x="355" y="41" width="12" height="12" rx="2"/>
<rect class="l0" x="355" y="56" width="12" height="12" rx="2"/>
<rect class="l0" x="355" y="71" width="12" height="12" rx="2"/>
<rect class="l1" x="355" y="86" width="12" height="12" rx="2"/>
<rect class="l0" x="355" y="101" width="12" height="12" rx="2"/>
<rect class="l1" x="355" y="116" width="12" height="12" rx="2"/>
<rect class="l0" x="370" y="26" width="12" height="12" rx="2"/>
<rect class="l0" x="370" y="41" width="12" height="12" rx="2"/>
<rect class="l0" x="370" y="56" width="12" height="12" rx="2"/>
<rect class="l3" x="370" y="71" width="12" height="12" rx="2"/>
<rect class="l0" x="370" y="86" width="12" height="12" rx="2"/>
<rect class="l3" x="370" y="101" width="12" height="12" rx="2"/>
<rect class="l2" x="370" y="116" width="12" height="12" rx="2"/>
<rect class="l0" x="385" y="26" width="12" height="12" rx="2"/>
<rect class="l2" x="385" y="41" width="12" height="12" rx="2"/>
<rect class="l0" x="385" y="56" width="12" height="12" rx="2"/>
<rect class="l0" x="385" y="71" width="12" height="12" rx="2"/>
<rect class="l2" x="385" y="86" width="12" height="12" rx="2"/>
<rect class="l0" x="385" y="101" width="12" height="12" rx="2"/>
<rect class="l1" x="385" y="116" width="12" height="12" rx="2"/>
<rect class="l0" x="400" y="26" width="12" height="12" rx="2"/>
<rect class="l0" x="400" y="41" width="12" height="12" rx="2"/>
<rect class="l0" x="400" y="56" width="12" height="12" rx="2"/>
<rect class="l0" x="400" y="71" width="12" height="12" rx="2"/>
<rect class="l0" x="400" y="86" width="12" height="12" rx="2"/>
<rect class="l0" x="400" y="101" width="12" height="12" rx="2"/>
<rect class="l0" x="400" y="116" width="12" height="12" rx="2"/>
<rect class="l0" x="415" y="26" width="12" height="12" rx="2"/>
<rect class="l2" x="415" y="41" width="12" height="12" rx="2"/>
<rect class="l0" x="415" y="56" width="12" height="12" rx="2"/>
<rect class="l3" x="415" y="71" width="12" height="12" rx="2"/>
<rect class="l0" x="415" y="86" width="12" height="12" rx="2"/>
<rect class="l0" x="415" y="101" width="12" height="12" rx="2"/>
<rect class="l4" x="415" y="116" width="12" height="12" rx="2"/>
<rect class="l2" x="430" y="26" width="12" height="12" rx="2"/>
<rect class="l2" x="430" y="41" width="12" height="12" rx="2"/>
<rect class="l4" x="430" y="56" width="12" height="12" rx="2"/>
<rect class="l0" x="430" y="71" width="12" height="12" rx="2"/>
<rect class="l3" x="430" y="86" width="12" height="12" rx="2"/>
<rect class="l4" x="430" y="101" width="12" height="12" rx="2"/>
<rect class="l0" x="430" y="116" width="12" height="12" rx="2"/>
<rect class="l0" x="445" y="26" width="12" height="12" rx="2"/>
<rect class="l4" x="445" y="41" width="12" height="12" rx="2"/>
<rect class="l3" x="445" y="56" width="12" height="12" rx="2"/>
<rect class="l4" x="445" y="71" width="12" height="12" rx="2"/>
<rect class="l0" x="445" y="86" width="12" height="12" rx="2"/>
<rect class="l0" x="445" y="101" width="12" height="12" rx="2"/>
<rect class="l2" x="445" y="116" width="12" height="12" rx="2"/>
<rect class="l0" x="460" y="26" width="12" height="12" rx="2"/>
<rect class="l0" x="460" y="41" width="12" height="12" rx="2"/>
<rect class="l2" x="460" y="56" width="12" height="12" rx="2"/>
<rect class="l2" x="460" y="71" width="12" height="12" rx="2"/>
<rect class="l0" x="460" y="86" width="12" height="12" rx="2"/>
<rect class="l0" x="460" y="101" width="12" height="12" rx="2"/>
<rect class="l0" x="460" y="116" width="12" height="12" rx="2"/>
<rect class="l4" x="475" y="26" width="12" height="12" rx="2"/>
<rect class="l0" x="475" y="41" width="12" height="12" rx="2"/>
<rect class="l3" x="475" y="56" width="12" height="12" rx="2"/>
<rect class="l3" x="475" y="71" width="12" height="12" rx="2"/>
<rect class="l4" x="475" y="86" width="12" height="12" rx="2"/>
<rect class="l3" x="475" y="101" width="12" height="12" rx="2"/>
<rect class="l3" x="475" y="116" width="12" height="12" rx="2"/>
<rect class="l4" x="490" y="26" width="12" height="12" rx="2"/>
<rect class="l4" x="490" y="41" width="12" height="12" rx="2"/>
<rect class="l0" x="490" y="56" width="12" height="12" rx="2"/>
<rect class="l0" x="490" y="71" width="12" height="12" rx="2"/>
<rect class="l4" x="490" y="86" width="12" height="12" rx="2"/>
<rect class="l0" x="490" y="101" width="12" height="12" rx="2"/>
<rect class="l3" x="490" y="116" width="12" height="12" rx="2"/>
<rect class="l2" x="505" y="26" width="12" height="12" rx="2"/>
<rect class="l0" x="505" y="41" width="12" height="12" rx="2"/>
<rect class="l4" x="505" y="56" width="12" height="12" rx="2"/>
<rect class="l0" x="505" y="71" width="12" height="12" rx="2"/>
<rect class="l2" x="505" y="86" width="12" height="12" rx="2"/>
<rect class="l2" x="505" y="101" width="12" height="12" rx="2"/>
<rect class="l3" x="505" y="116" width="12" height="12" rx="2"/>
<rect class="l2" x="520" y="26" width="12" height="12" rx="2"/>
<rect class="l4" x="520" y="41" width="12" height="12" rx="2"/>
<rect class="l4" x="520" y="56" width="12" height="12" rx="2"/>
<rect class="l4" x="520" y="71" width="12" height="12" rx="2"/>
<rect class="l4" x="520" y="86" width="12" height="12" rx="2"/>
<rect class="l2" x="520" y="101" width="12" height="12" rx="2"/>
<rect class="l0" x="520" y="116" width="12" height="12" rx="2"/>
<rect class="l0" x="535" y="26" width="12" height="12" rx="2"/>
<rect class="l4" x="535" y="41" width="12" height="12" rx="2"/>
<rect class="l3" x="535" y="56" width="12" height="12" rx="2"/>
<rect class="l3" x="535" y="71" width="12" height="12" rx="2"/>
<rect class="l1" x="535" y="86" width="12" height="12" rx="2"/>
<rect class="l1" x="535" y="101" width="12" height="12" rx="2"/>
<rect class="l1" x="535" y="116" width="12" height="12" rx="2"/>
<rect class="l0" x="550" y="26" width="12" height="12" rx="2"/>
<rect class="l2" x="550" y="41" width="12" height="12" rx="2"/>
<rect class="l1" x="550" y="56" width="12" height="12" rx="2"/>
<rect class="l2" x="550" y="71" width="12" height="12" rx="2"/>
<rect class="l1" x="550" y="86" width="12" height="12" rx="2"/>
<rect class="l0" x="550" y="101" width="12" height="12" rx="2"/>
<rect class="l0" x="550" y="116" width="12" height="12" rx="2"/>
<rect class="l0" x="565" y="26" width="12" height="12" rx="2"/>
<rect class="l2" x="565" y="41" width="12" height="12" rx="2"/>
<rect class="l3" x="565" y="56" width="12" height="12" rx="2"/>
<rect class="l2" x="565" y="71" width="12" height="12" rx="2"/>
<rect class="l4" x="565" y="86" width="12" height="12" rx="2"/>
<rect class="l3" x="565" y="101" width="12" height="12" rx="2"/>
<rect class="l4" x="565" y="116" width="12" height="12" rx="2"/>
<rect class="l3" x="580" y="26" width="12" height="12" rx="2"/>
<rect class="l1" x="580" y="41" width="12" height="12" rx="2"/>
<rect class="l1" x="580" y="56" width="12" height="12" rx="2"/>
<rect class="l0" x="580" y="71" width="12" height="12" rx="2"/>
<rect class="l2" x="580" y="86" width="12" height="12" rx="2"/>
<rect class="l2" x="580" y="101" width="12" height="12" rx="2"/>
<rect class="l3" x="580" y="116" width="12" height="12" rx="2"/>
<rect class="l2" x="595" y="26" width="12" height="12" rx="2"/>
<rect class="l3" x="595" y="41" width="12" height="12" rx="2"/>
<rect class="l3" x="595" y="56" width="12" height="12" rx="2"/>
<rect class="l3" x="595" y="71" width="12" height="12" rx="2"/>
<rect class="l2" x="595" y="86" width="12" height="12" rx="2"/>
<rect class="l2" x="595" y="101" width="12" height="12" rx="2"/>
<rect class="l3" x="595" y="116" width="12" height="12" rx="2"/>
<rect class="l1" x="610" y="26" width="12" height="12" rx="2"/>
<rect class="l1" x="610" y="41" width="12" height="12" rx="2"/>
<rect class="l3" x="610" y="56" width="12" height="12" rx="2"/>
<rect class="l1" x="610" y="71" width="12" height="12" rx="2"/>
<rect class="l1" x="610" y="86" width="12" height="12" rx="2"/>
<rect class="l3" x="610" y="101" width="12" height="12" rx="2"/>
<rect class="l1" x="610" y="116" width="12" height="12" rx="2"/>
<rect class="l2" x="625" y="26" width="12" height="12" rx="2"/>
<rect class="l1" x="625" y="41" width="12" height="12" rx="2"/>
<rect class="l3" x="625" y="56" width="12" height="12" rx="2"/>
<rect class="l4" x="625" y="71" width="12" height="12" rx="2"/>
<rect class="l3" x="625" y="86" width="12" height="12" rx="2"/>
<rect class="l4" x="625" y="101" width="12" height="12" rx="2"/>
<rect class="l4" x="625" y="116" width="12" height="12" rx="2"/>
<rect class="l3" x="640" y="26" width="12" height="12" rx="2"/>
<rect class="l2" x="640" y="41" width="12" height="12" rx="2"/>
<rect class="l1" x="640" y="56" width="12" height="12" rx="2"/>
<rect class="l2" x="640" y="71" width="12" height="12" rx="2"/>
<rect class="l3" x="640" y="86" width="12" height="12" rx="2"/>
<rect class="l0" x="640" y="101" width="12" height="12" rx="2"/>
<rect class="l2" x="640" y="116" width="12" height="12" rx="2"/>
<rect class="l1" x="655" y="26" width="12" height="12" rx="2"/>
<rect class="l2" x="655" y="41" width="12" height="12" rx="2"/>
<rect class="l0" x="655" y="56" width="12" height="12" rx="2"/>
<rect class="l3" x="655" y="71" width="12" height="12" rx="2"/>
<rect class="l3" x="655" y="86" width="12" height="12" rx="2"/>
<rect class="l2" x="655" y="101" width="12" height="12" rx="2"/>
<rect class="l0" x="655" y="116" width="12" height="12" rx="2"/>
<rect class="l3" x="670" y="26" width="12" height="12" rx="2"/>
<rect class="l1" x="670" y="41" width="12" height="12" rx="2"/>
<rect class="l1" x="670" y="56" width="12" height="12" rx="2"/>
<rect class="l2" x="670" y="71" width="12" height="12" rx="2"/>
<rect class="l0" x="670" y="86" width="12" height="12" rx="2"/>
<rect class="l3" x="670" y="101" width="12" height="12" rx="2"/>
<rect class="l2" x="670" y="116" width="12" height="12" rx="2"/>
<rect class="l2" x="685" y="26" width="12" height="12" rx="2"/>
<rect class="l0" x="685" y="41" width="12" height="12" rx="2"/>
<rect class="l0" x="685" y="56" width="12" height="12" rx="2"/>
<rect class="l3" x="685" y="71" width="12" height="12" rx="2"/>
<rect class="l3" x="685" y="86" width="12" height="12" rx="2"/>
<rect class="l3" x="685" y="101" width="12" height="12" rx="2"/>
<rect class="l3" x="685" y="116" width="12" height="12" rx="2"/>
<rect class="l4" x="700" y="26" width="12" height="12" rx="2"/>
<rect class="l4" x="700" y="41" width="12" height="12" rx="2"/>
<rect class="l1" x="700" y="56" width="12" height="12" rx="2"/>
<rect class="l1" x="700" y="71" width="12" height="12" rx="2"/>
<rect class="l2" x="700" y="86" width="12" height="12" rx="2"/>
<rect class="l3" x="700" y="101" width="12" height="12" rx="2"/>
<rect class="l4" x="700" y="116" width="12" height="12" rx="2"/>
<rect class="l4" x="715" y="26" width="12" height="12" rx="2"/>
<rect class="l3" x="715" y="41" width="12" height="12" rx="2"/>
<rect class="l3" x="715" y="56" width="12" height="12" rx="2"/>
<rect class="l2" x="715" y="71" width="12" height="12" rx="2"/>
<rect class="l1" x="715" y="86" width="12" height="12" rx="2"/>
<rect class="l3" x="715" y="101" width="12" height="12" rx="2"/>
<rect class="l0" x="715" y="116" width="12" height="12" rx="2"/>
<rect class="l2" x="730" y="26" width="12" height="12" rx="2"/>
<rect class="l4" x="730" y="41" width="12" height="12" rx="2"/>
<rect class="l4" x="730" y="56" width="12" height="12" rx="2"/>
<rect class="l4" x="730" y="71" width="12" height="12" rx="2"/>
<rect class="l4" x="730" y="86" width="12" height="12" rx="2"/>
<rect class="l4" x="730" y="101" width="12" height="12" rx="2"/>
<rect class="l1" x="730" y="116" width="12" height="12" rx="2"/>
<rect class="l3" x="745" y="26" width="12" height="12" rx="2"/>
<rect class="l4" x="745" y="41" width="12" height="12" rx="2"/>
<rect class="l3" x="745" y="56" width="12" height="12" rx="2"/>
<rect class="l4" x="745" y="71" width="12" height="12" rx="2"/>
<rect class="l3" x="745" y="86" width="12" height="12" rx="2"/>
<rect class="l4" x="745" y="101" width="12" height="12" rx="2"/>
<rect class="l2" x="745" y="116" width="12" height="12" rx="2"/>
<rect class="l3" x="760" y="26" width="12" height="12" rx="2"/>
<rect class="l4" x="760" y="41" width="12" height="12" rx="2"/>
<rect class="l4" x="760" y="56" width="12" height="12" rx="2"/>
<rect class="l4" x="760" y="71" width="12" height="12" rx="2"/>
<rect class="l4" x="760" y="86" width="12" height="12" rx="2"/>
<rect class="l3" x="760" y="101" width="12" height="12" rx="2"/>
<rect class="l4" x="760" y="116" width="12" height="12" rx="2"/>
<rect class="l2" x="775" y="26" width="12" height="12" rx="2"/>
<rect class="l4" x="775" y="41" width="12" height="12" rx="2"/>
<rect class="l3" x="775" y="56" width="12" height="12" rx="2"/>
<rect class="l2" x="775" y="71" width="12" height="12" rx="2"/>
<rect class="l4" x="775" y="86" width="12" height="12" rx="2"/>
<rect class="l2" x="775" y="101" width="12" height="12" rx="2"/>
<rect class="l3" x="775" y="116" width="12" height="12" rx="2"/>
<rect class="l0" x="790" y="26" width="12" height="12" rx="2"/>
<rect class="l4" x="790" y="41" width="12" height="12" rx="2"/>
<rect class="l4" x="790" y="56" width="12" height="12" rx="2"/>
<rect class="l3" x="790" y="71" width="12" height="12" rx="2"/>
<rect class="l2" x="790" y="86" width="12" height="12" rx="2"/>
<g transform="translate(10.00,142.00) scale(0.01000,-0.01000)" class="lbl"><path transform="translate(0.0,0)" d="M151 -12V78H60V179H161V88H423V260H151V359H423V530H161V440H60V540H151V631H433V540H525V350H433V270H525V78H433V-12Z"/><path transform="translate(586.0,0)" d="M423 -12V169H60V359H151V450H241V540H333V631H525V-12ZM161 270H423V530H343V440H251V350H161Z"/><path transform="translate(1172.0,0)" d="M151 -12V78H60V179H161V88H423V260H151V350H60V540H151V631H433V540H525V78H433V-12ZM161 359H423V530H161Z"/><path transform="translate(1758.0,0)" d="M151 -12V78H60V270H151V359H423V530H161V440H60V540H151V631H433V540H525V350H433V260H161V88H423V179H525V78H433V-12Z"/><path transform="translate(2544.0,0)" d="M151 -12V78H60V359H151V450H433V359H525V260H423V350H161V88H423V179H525V78H433V-12Z"/><path transform="translate(3130.0,0)" d="M151 -12V78H60V359H151V450H433V359H525V78H433V-12ZM161 88H423V350H161Z"/><path transform="translate(3716.0,0)" d="M60 -12V450H433V359H525V-12H423V350H161V-12Z"/><path transform="translate(4302.0,0)" d="M241 -12V78H151V350H60V450H151V631H251V450H525V350H251V88H515V179H616V78H525V-12Z"/><path transform="translate(4979.0,0)" d="M60 -12V359H151V450H433V359H525V260H423V350H161V-12Z"/><path transform="translate(5565.0,0)" d="M60 -12V450H161V-12ZM60 530V631H161V530Z"/><path transform="translate(5787.0,0)" d="M151 -12V78H60V631H161V450H433V359H525V78H433V-12ZM161 88H423V350H161Z"/><path transform="translate(6373.0,0)" d="M151 -12V78H60V450H161V88H423V450H525V78H433V-12Z"/><path transform="translate(6959.0,0)" d="M241 -12V78H151V350H60V450H151V631H251V450H525V350H251V88H515V179H616V78H525V-12Z"/><path transform="translate(7636.0,0)" d="M60 -12V450H161V-12ZM60 530V631H161V530Z"/><path transform="translate(7858.0,0)" d="M151 -12V78H60V359H151V450H433V359H525V78H433V-12ZM161 88H423V350H161Z"/><path transform="translate(8444.0,0)" d="M60 -12V450H433V359H525V-12H423V350H161V-12Z"/><path transform="translate(9030.0,0)" d="M60 -12V88H423V169H151V260H60V359H151V450H525V350H161V270H433V179H525V78H433V-12Z"/><path transform="translate(9816.0,0)" d="M241 -12V78H151V350H60V450H151V631H251V450H525V350H251V88H515V179H616V78H525V-12Z"/><path transform="translate(10493.0,0)" d="M60 -12V631H161V359H241V450H433V359H525V-12H423V350H251V260H161V-12Z"/><path transform="translate(11079.0,0)" d="M60 -12V450H161V-12ZM60 530V631H161V530Z"/><path transform="translate(11301.0,0)" d="M60 -12V88H423V169H151V260H60V359H151V450H525V350H161V270H433V179H525V78H433V-12Z"/><path transform="translate(12087.0,0)" d="M151 -193V-103H60V-3H161V-93H424V78H151V169H60V450H161V179H424V450H525V-103H434V-193Z"/><path transform="translate(12673.0,0)" d="M151 -12V78H60V359H151V450H433V359H525V260H423V350H161V270H343V169H161V88H423V180H525V79H433V-12Z"/><path transform="translate(13259.0,0)" d="M151 -12V78H60V359H151V450H433V359H525V88H616V-12H515V78H433V-12ZM161 88H423V350H161Z"/><path transform="translate(13936.0,0)" d="M60 -12V359H151V450H433V359H525V260H423V350H161V-12Z"/></g>
<rect class="sweep" x="0" y="0" width="284" height="148" fill="url(#sw)" opacity=".5"/>
<defs><linearGradient id="sw" x1="0" y1="0" x2="1" y2="0"><stop offset="0" stop-color="#fff" stop-opacity="0"/><stop offset=".5" stop-color="#fff" stop-opacity=".55"/><stop offset="1" stop-color="#fff" stop-opacity="0"/></linearGradient></defs>
</svg>