<svg xmlns="http://www.w3.org/2000/svg" viewBox="0 0 415 132" width="415" height="132" role="img" aria-label="debi-marlene">
<style>
  .bg{fill:#f4fafe;stroke:#bcdcef}
  .name{fill:#1479c9} .desc{fill:#5d7f95} .meta{fill:#5d7f95} .ico{fill:#2b4257}
  @media (prefers-color-scheme: dark){
    .bg{fill:#0f1b26;stroke:#2b4257}
    .name{fill:#58b6f8} .desc{fill:#8badc4} .meta{fill:#8badc4} .ico{fill:#cfe6f5}
  }
  .beat{animation:b 4s ease-in-out infinite}
  @keyframes b{0%,100%{opacity:.25}50%{opacity:.9}}
</style>
<rect class="bg" x=".5" y=".5" width="414" height="131" rx="8" stroke-width="1"/>
<rect x="0" y="8" width="3" height="116" rx="1.5" fill="#3572A5"/>
<g transform="translate(18,20) scale(0.92)"><path class="ico" d="M2 5h20v14H2V5zm18 12V7H4v10h16zM8 9h2v2h2v2h-2v2H8v-2H6v-2h2V9zm6 0h2v2h-2V9zm4 4h-2v2h2v-2z"/></g>
<g transform="translate(48.00,35.00) scale(0.01600,-0.01600)" class="name"><path transform="translate(0.0,0)" d="M149 -11V74H61V381H149V467H415V638H543V74H453V-11ZM188 125H414V331H188Z"/><path transform="translate(603.0,0)" d="M149 -11V74H61V381H149V467H453V381H542V246H414V331H188V297H365V160H188V125H414V212H542V75H453V-11Z"/><path transform="translate(1206.0,0)" d="M149 -11V74H61V638H188V467H453V381H542V74H453V-11ZM188 125H414V331H188Z"/><path transform="translate(1809.0,0)" d="M61 -11V467H188V-11ZM61 501V638H188V501Z"/><path transform="translate(2058.0,0)" d="M28 182V319H332V182Z"/><path transform="translate(2425.0,0)" d="M61 -11V467H365V381H414V467H631V381H718V-11H592V331H453V-11H326V331H188V-11Z"/><path transform="translate(3204.0,0)" d="M149 -11V74H61V381H149V467H453V381H542V125H631V-11H503V74H453V-11ZM188 125H414V331H188Z"/><path transform="translate(3896.0,0)" d="M61 -11V381H149V467H453V381H542V246H414V331H188V-11Z"/><path transform="translate(4499.0,0)" d="M61 -11V638H188V-11Z"/><path transform="translate(4748.0,0)" d="M149 -11V74H61V381H149V467H453V381H542V246H414V331H188V297H365V160H188V125H414V212H542V75H453V-11Z"/><path transform="translate(5351.0,0)" d="M61 -11V467H453V381H542V-11H414V331H188V-11Z"/><path transform="translate(5954.0,0)" d="M149 -11V74H61V381H149V467H453V381H542V246H414V331H188V297H365V160H188V125H414V212H542V75H453V-11Z"/></g>
<g transform="translate(18.00,62.00) scale(0.01100,-0.01100)" class="desc"><path transform="translate(0.0,0)" d="M60 -12V631H343V540H433V450H525V169H433V78H343V-12ZM161 88H333V179H423V440H333V530H161Z"/><path transform="translate(586.0,0)" d="M60 -12V450H161V-12ZM60 530V631H161V530Z"/><path transform="translate(808.0,0)" d="M60 -12V88H423V169H151V260H60V359H151V450H525V350H161V270H433V179H525V78H433V-12Z"/><path transform="translate(1394.0,0)" d="M151 -12V78H60V359H151V450H433V359H525V260H423V350H161V88H423V179H525V78H433V-12Z"/><path transform="translate(1980.0,0)" d="M151 -12V78H60V359H151V450H433V359H525V78H433V-12ZM161 88H423V350H161Z"/><path transform="translate(2566.0,0)" d="M60 -12V359H151V450H433V359H525V260H423V350H161V-12Z"/><path transform="translate(3152.0,0)" d="M151 -12V78H60V359H151V450H424V631H525V78H433V-12ZM161 88H423V350H161Z"/><path transform="translate(3938.0,0)" d="M151 -12V78H60V631H161V450H433V359H525V78H433V-12ZM161 88H423V350H161Z"/><path transform="translate(4524.0,0)" d="M151 -12V78H60V359H151V450H433V359H525V78H433V-12ZM161 88H423V350H161Z"/><path transform="translate(5110.0,0)" d="M241 -12V78H151V350H60V450H151V631H251V450H525V350H251V88H515V179H616V78H525V-12Z"/><path transform="translate(5987.0,0)" d="M60 -12V540H151V631H433V540H525V440H423V530H161V359H343V260H161V-12Z"/><path transform="translate(6573.0,0)" d="M151 -12V78H60V359H151V450H433V359H525V78H433V-12ZM161 88H423V350H161Z"/><path transform="translate(7159.0,0)" d="M60 -12V359H151V450H433V359H525V260H423V350H161V-12Z"/><path transform="translate(7945.0,0)" d="M151 -12V78H60V540H151V631H433V540H525V440H423V530H161V359H343V260H161V88H423V179H525V78H433V-12Z"/><path transform="translate(8531.0,0)" d="M241 -12V78H151V350H60V450H151V631H251V450H525V350H251V88H515V179H616V78H525V-12Z"/><path transform="translate(9208.0,0)" d="M151 -12V78H60V359H151V450H433V359H525V260H423V350H161V270H343V169H161V88H423V180H525V79H433V-12Z"/><path transform="translate(9794.0,0)" d="M60 -12V359H151V450H433V359H525V260H423V350H161V-12Z"/><path transform="translate(10380.0,0)" d="M60 -12V450H433V359H525V-12H423V350H161V-12Z"/><path transform="translate(10966.0,0)" d="M151 -12V78H60V359H151V450H433V359H525V88H616V-12H515V78H433V-12ZM161 88H423V350H161Z"/><path transform="translate(11643.0,0)" d="M60 -12V631H161V-12Z"/><path transform="translate(12065.0,0)" d="M60 -12V540H151V631H433V540H525V260H433V169H389V88H479V-12H379V78H287V169H161V-12ZM161 270H423V530H161Z"/><path transform="translate(12651.0,0)" d="M151 -12V78H60V359H151V450H433V359H525V260H423V350H161V270H343V169H161V88H423V180H525V79H433V-12Z"/><path transform="translate(13237.0,0)" d="M241 -12V78H151V350H60V450H151V631H251V450H525V350H251V88H515V179H616V78H525V-12Z"/><path transform="translate(13914.0,0)" d="M151 -12V78H60V450H161V88H423V450H525V78H433V-12Z"/><path transform="translate(14500.0,0)" d="M60 -12V359H151V450H433V359H525V260H423V350H161V-12Z"/><path transform="translate(15086.0,0)" d="M60 -12V450H433V359H525V-12H423V350H161V-12Z"/><path transform="translate(15872.0,0)" d="M60 -12V450H161V88H333V450H433V88H606V450H706V78H616V-12H423V78H343V-12Z"/><path transform="translate(16639.0,0)" d="M60 -12V450H161V-12ZM60 530V631H161V530Z"/><path transform="translate(16861.0,0)" d="M241 -12V78H151V350H60V450H151V631H251V450H525V350H251V88H515V179H616V78H525V-12Z"/><path transform="translate(17538.0,0)" d="M60 -12V631H161V359H241V450H433V359H525V-12H423V350H251V260H161V-12Z"/><path transform="translate(18324.0,0)" d="M60 -12V450H151V540H241V631H343V540H433V450H525V-12H423V169H161V-12ZM161 270H423V440H333V530H251V440H161Z"/><path transform="translate(18910.0,0)" d="M60 -12V88H151V530H60V631H343V530H251V88H343V-12Z"/><path transform="translate(19514.0,0)" d="M232 -12V78H141V260H50V450H151V270H241V88H323V270H413V450H515V260H423V78H333V-12Z"/><path transform="translate(20090.0,0)" d="M151 -12V78H60V359H151V450H433V359H525V78H433V-12ZM161 88H423V350H161Z"/><path transform="translate(20676.0,0)" d="M60 -12V450H161V-12ZM60 530V631H161V530Z"/><path transform="translate(20898.0,0)" d="M151 -12V78H60V359H151V450H433V359H525V260H423V350H161V88H423V179H525V78H433V-12Z"/><path transform="translate(21484.0,0)" d="M151 -12V78H60V359H151V450H433V359H525V260H423V350H161V270H343V169H161V88H423V180H525V79H433V-12Z"/><path transform="translate(22270.0,0)" d="M151 -12V78H60V359H151V450H433V359H525V88H616V-12H515V78H433V-12ZM161 88H423V350H161Z"/><path transform="translate(22947.0,0)" d="M60 -12V450H433V359H525V-12H423V350H161V-12Z"/><path transform="translate(23533.0,0)" d="M151 -12V78H60V359H151V450H424V631H525V78H433V-12ZM161 88H423V350H161Z"/><path transform="translate(24319.0,0)" d="M241 -12V530H161V440H60V540H151V631H433V540H525V440H423V530H343V-12Z"/><path transform="translate(24905.0,0)" d="M241 -12V530H161V440H60V540H151V631H433V540H525V440H423V530H343V-12Z"/><path transform="translate(25491.0,0)" d="M151 -12V78H60V179H161V88H423V260H151V350H60V540H151V631H433V540H525V440H423V530H161V359H433V270H525V78H433V-12Z"/></g>
<circle cx="23" cy="108" r="5" fill="#3572A5"/>
<g transform="translate(34.00,112.00) scale(0.01100,-0.01100)" class="meta"><path transform="translate(0.0,0)" d="M60 -12V540H151V631H433V540H525V260H433V169H161V-12ZM161 270H423V530H161Z"/><path transform="translate(586.0,0)" d="M151 -193V-103H60V-3H161V-93H424V78H151V169H60V450H161V179H424V450H525V-103H434V-193Z"/><path transform="translate(1172.0,0)" d="M241 -12V78H151V350H60V450H151V631H251V450H525V350H251V88H515V179H616V78H525V-12Z"/><path transform="translate(1849.0,0)" d="M60 -12V631H161V359H241V450H433V359H525V-12H423V350H251V260H161V-12Z"/><path transform="translate(2435.0,0)" d="M151 -12V78H60V359H151V450H433V359H525V78H433V-12ZM161 88H423V350H161Z"/><path transform="translate(3021.0,0)" d="M60 -12V450H433V359H525V-12H423V350H161V-12Z"/></g>
<g transform="translate(79.67699999999999,99) scale(0.72)"><path fill="#3572A5" d="M8 1l2 4.5 4.9.4-3.7 3.2 1.1 4.8L8 11.4 3.7 13.9l1.1-4.8L1.1 5.9l4.9-.4z"/></g>
<g transform="translate(94.68,112.00) scale(0.01100,-0.01100)" class="meta"><path transform="translate(0.0,0)" d="M423 -12V169H60V359H151V450H241V540H333V631H525V-12ZM161 270H423V530H343V440H251V350H161Z"/></g>
<rect class="beat" x="393" y="12" width="6" height="6" fill="#3572A5"/>
</svg>